<?xml version="1.0" encoding="UTF-8"?>
<svg viewBox="0 0 424 347" xmlns="http://www.w3.org/2000/svg">
 <path d="m133.5 19.5l6-11.5 0.5 0.5q0.5 0.5 0.75 1.5t2.75 1.75 10.5 1.25 9.5 0.75 2.25 1.75 1.5 2.75l0.75 1.25-2.5-0.5q-2.5-0.5-3-1t-9 0-12.5 0.25-5.75 4.75-3.25 8.5-1.25 5.25 7.75 5.75 15 7.25l7.5 3.25-0.75-5.5q-0.75-5.5-3-10.75l-2.25-5.25 2 0.5q2 0.5 3.5 1.5t8.5 5 9 5.5 4.5 3 4 1.5h1.5l0.75-1.25q0.75-1.25 5.25-9.75t6-11.5 3.75-7.75l2.25-4.75 1-0.25q1-0.25 0.5 1.75t9 2.75 11 1.75l1.5 1-8.5 1q-8.5 1-12 1.5t-4.25 1.75-3.25 7.25-5 12-2.25 7.75 4.75 4.25 11.5 6.5 10.25 7.75 4.75 6.25 3.5 8.5 2.5 8.5 0 15l-0.5 12.5 3.5 4q3.5 4 5.5 7t9.5 10 11.75 10.75 8.25 6.25 6.5 4.5 6.5 4.5 6 4 6 4 5.5 3.5 7.5 4.5 8 5 4 2.5l2 1 3.5-0.5q3.5-0.5 14-4t10.75-3.25l0.25 0.25-0.25 1.25q-0.25 1.25-9.25 5.75t-15.5 7-14 5.5-8 3.5-6.5 3-14 6-15.5 6.5-13.5 5.5-8.5 3.5l-2.5 1-0.75 1.25q-0.75 1.25-2.75 5.75t-6 11.5-6.25 9.75-3.5 3.5-2.75 2.75-4.25 4.75l-2.75 2.75 4.5-0.5q4.5-0.5 14-2t22-1 18 2 10.5 2 9.5-0.5 9.5-3.5 15-2 15.5 2 13.5 1 13-2 10.5-2.25l5.5-0.75v29h-360l-0.25-9q-0.25-9 0-10.5l0.25-1.5 2.5-0.25q2.5-0.25 5.5-0.25h3l-0.25-0.25q-0.25-0.25-3.75-9.25t-6.5-16-3.5-36.5l-0.5-29.5 1.5-2q1.5-2 7-8t7.5-9 3.5-5 3.5-5 4-5.5 4-5.5 4-5.5 5.5-8.5 5-8 3.5-5 3-4.5 3.5-5.5 4-6 4-6 4.5-6.5 2.5-4.5-1.75-3.75l-2.25-1.75 4.5-0.5q4.5-0.5 6.75-3.25t4.75-6.75 4.5-7 3.5-4.5l1.5-1.5-0.5 4q-0.5 4-2.25 9.5l-1.75 5.5 1.5-0.75q1.5-0.75 3.5-2.25t3.75-3.75 2.75-4.75 0.5-10-2.5-12-4.5-8.5-6.25-8.25l-3.75-4.25 2.5 0.5q2.5 0.5 10.5 5t9.5 5.5 5.5 2.5l4 1.5 1.25-1.75q1.25-1.75 7.25-13.25zm-43.75 71q1.25-3.5 2.75-3.5h1.5l0.25 2.5q0.25 2.5-2.75 10t-7 16.5-6.5 15-6 14-5.5 12.5-3.25 7.5-3.75 2.5l-2.5-0.5 0.75 1.5q0.75 1.5 1.25 2t0 3-4 10.5-5.5 12.5-8 17.5-7.5 16.5-1.75 5-5.75 1.5-5-1.25 2-1.75l1.5-0.5 2.75-1.75q2.75-1.75 7.75-19.75t7.5-25 6.5-17.5 8.5-20.5 5.5-11.5 7-12.5 7-12.5 5-8.5 5-8.5 2.25-5zm-29.5 97.5l1.75-6 1.25 0.5q1.25 0.5 1.75 3.5t0 9.5-2.5 14-4 10.5-6 7l-4 4 0.5-3.5q0.5-3.5 5-18.5t6.25-21zm29.25 34.5q3.5 0 0.5 2.5l-3 2.5-4 1q-4 1-16 2.5l-12 1.5 0.5-0.5q0.5-0.5 15.5-5t18.5-4.5zm-20-55q1.5 0 13.5 4.5t18 8 9.25 6.25 8.75 8.75 5.75 7l0.25 1-2.5-0.75q-2.5-0.75-5.5-2.25t-17-9-14.5-8-3.5-2-8-4.5-5.75-3.75-0.75-2.75v-2l0.25-0.25q0.25-0.25 1.75-0.25zm29.5-71h1l0.75 1.25q0.75 1.25 3.5 10.5t2.5 10-0.25 1.25-1.5 8.5-4 12-5.25 7.25-5.25 5.25-7 4.5-7 3.5-4.5 1h-2l0.75-1.25q0.75-1.25 4.25-10.25t9-21 9-21 4.25-10.25 1.75-1.25zm20 119.75q4-1.25 3.25 1.25t-1.5 3.25-2.25 1.25-11.5 2l-10 1.5 3-1.5q3-1.5 9-4l6-2.5 4-1.25zm-14.5-129.75q1.5 0 8.5 3.5t10 5.5 6.25 4.75 4.75 4.75 2.25 3.25l0.75 1.25-2-0.5q-2-0.5-7-3.5t-6.5-4-9.5-5.5-8.75-5.25-0.75-2.25v-1.5l0.25-0.25q0.25-0.25 1.75-0.25zm69 116q8.5 0 14.5 1t9 2.5 5 3 4 4 1.75 3.25 0 1l0.25 0.25-0.5 0.5q-0.5 0.5-27.5 1t-37.5 1.75l-10.5 1.25 0.75-3q0.75-3 2-5.75t6.25-4.75 8.5-3 9.5-2 14.5-1zm-26.5-62.25q6-0.25 5.5 2.25t-2.5 2.25l-2-0.25-3.5-2q-3.5-2 2.5-2.25zm4-42.25q0-1 8.5-0.5t7.5 3.75-3 3.25h-2l-5.5-2.75q-5.5-2.75-5.5-3.75zm10 44.5q1 0 8.5 3t9.5 4.5 5 3.5 7.25 5.75 6.75 8.25 2.75 6l0.25 1.5-1.5-0.75q-1.5-0.75-5.5-3.25t-5.5-3.5-9.5-5.5-9.5-5.5-6.5-4-5.25-3.25 0.25-2.75l0.5-2.5 0.75-0.75q0.75-0.75 1.75-0.75zm12.25-39.5q0.75-2 3.25-1.25t5.5 2.25 4.5 2.5 3.5 2.5 3.75 2.75 2 2.25 1.25 1 1.75 1.5 3.25 4.5 3.75 6l1.25 3-2.25-1q-2.25-1-4.5-2.75t-6.75-4.25-12.5-7-8.75-5.75-0.25-2.75l0.5-1.5 0.75-2zm51.75 24.25l1-0.25 0.75 2.5q0.75 2.5 4.25 9.5t7.5 14.5 7.5 13.5 4.5 7.5 3 4.5 4 5.5 4 5.5 5.75 7.25 6.5 7 3 3.75l0.25 1-7.5 2.25q-7.5 2.25-10.5 3.25t-10.5 3-23 1.75l-15.5-0.25 0.75-9q0.75-9-0.25-16t-4-13.5-3.25-6.75l-0.25-0.25 1.75-2.25q1.75-2.25 3.75-5.75t3-7.5 1.75-13.25 3.75-11.25 5-4 3-2.25zm67 64.25q6 0 12 2.25l6 2.25v1q0 1-7 3.25t-11 3.75-5.5 2-3.75 0.25l-2.25-0.25-0.5-1.5q-0.5-1.5 0-5t1.25-4.75 2.75-2.25 8-1z" fill-rule="evenodd" stroke-width="0"/>
</svg>
